<?xml version="1.0" encoding="UTF-8"?>
<svg id="Layer_2" data-name="Layer 2" xmlns="http://www.w3.org/2000/svg" xmlns:xlink="http://www.w3.org/1999/xlink" viewBox="0 0 189.27 48.17">
  <defs>
    <style>
      .cls-1 {
        fill: url(#linear-gradient-2);
      }

      .cls-2 {
        fill: url(#linear-gradient-17);
      }

      .cls-3 {
        fill: url(#linear-gradient-15);
      }

      .cls-4 {
        fill: #1d173c;
      }

      .cls-5 {
        fill: url(#linear-gradient-14);
      }

      .cls-6 {
        fill: url(#linear-gradient-6);
      }

      .cls-7 {
        fill: url(#linear-gradient-11);
      }

      .cls-8 {
        fill: url(#linear-gradient-10);
      }

      .cls-9 {
        fill: url(#linear-gradient-16);
      }

      .cls-10 {
        fill: url(#linear-gradient-5);
      }

      .cls-11 {
        fill: url(#linear-gradient-7);
      }

      .cls-12 {
        fill: url(#linear-gradient-9);
      }

      .cls-13 {
        fill: url(#linear-gradient-3);
      }

      .cls-14 {
        fill: url(#linear-gradient);
      }

      .cls-15 {
        fill: url(#linear-gradient-4);
      }

      .cls-16 {
        fill: url(#linear-gradient-8);
      }

      .cls-17 {
        fill: url(#linear-gradient-12);
      }

      .cls-18 {
        fill: url(#linear-gradient-13);
      }
    </style>
    <linearGradient id="linear-gradient" x1="28.76" y1="48.6" x2="28.76" y2="-.18" gradientUnits="userSpaceOnUse">
      <stop offset="0" stop-color="#cf1417"/>
      <stop offset=".18" stop-color="#f09621"/>
      <stop offset=".37" stop-color="#efc918"/>
      <stop offset=".57" stop-color="#80ab4d"/>
      <stop offset=".73" stop-color="#408ac1"/>
      <stop offset=".88" stop-color="#654fa0"/>
      <stop offset="1" stop-color="#97248f"/>
    </linearGradient>
    <linearGradient id="linear-gradient-2" x1="32.22" x2="32.22" y2="-.18" xlink:href="#linear-gradient"/>
    <linearGradient id="linear-gradient-3" x1="34.72" x2="34.72" y2="-.18" xlink:href="#linear-gradient"/>
    <linearGradient id="linear-gradient-4" x1="35.9" x2="35.9" y2="-.18" xlink:href="#linear-gradient"/>
    <linearGradient id="linear-gradient-5" x1="35.9" x2="35.9" y2="-.18" xlink:href="#linear-gradient"/>
    <linearGradient id="linear-gradient-6" x1="34.72" x2="34.72" y2="-.18" xlink:href="#linear-gradient"/>
    <linearGradient id="linear-gradient-7" x1="32.22" x2="32.22" y2="-.18" xlink:href="#linear-gradient"/>
    <linearGradient id="linear-gradient-8" x1="28.74" y1="48.6" x2="28.74" y2="-.18" xlink:href="#linear-gradient"/>
    <linearGradient id="linear-gradient-9" x1="23.94" y1="48.6" x2="23.94" y2="-.18" xlink:href="#linear-gradient"/>
    <linearGradient id="linear-gradient-10" x1="19.12" y1="48.6" x2="19.12" y2="-.18" xlink:href="#linear-gradient"/>
    <linearGradient id="linear-gradient-11" x1="15.65" y1="48.6" x2="15.65" y2="-.18" xlink:href="#linear-gradient"/>
    <linearGradient id="linear-gradient-12" x1="13.16" y1="48.6" x2="13.16" y2="-.18" xlink:href="#linear-gradient"/>
    <linearGradient id="linear-gradient-13" x1="11.97" y1="48.6" x2="11.97" y2="-.18" xlink:href="#linear-gradient"/>
    <linearGradient id="linear-gradient-14" x1="11.97" y1="48.6" x2="11.97" y2="-.18" xlink:href="#linear-gradient"/>
    <linearGradient id="linear-gradient-15" x1="13.15" y1="48.6" x2="13.15" y2="-.18" xlink:href="#linear-gradient"/>
    <linearGradient id="linear-gradient-16" x1="15.65" y1="48.6" x2="15.65" y2="-.18" xlink:href="#linear-gradient"/>
    <linearGradient id="linear-gradient-17" x1="19.12" y1="48.6" x2="19.12" y2="-.18" xlink:href="#linear-gradient"/>
  </defs>
  <g id="Layer_1-2" data-name="Layer 1">
    <g>
      <g>
        <path class="cls-4" d="M61.55,4.27h3.66l2.75,8.41,2.85-8.41h3.57l.36,12.15h-2.63l-.29-8.44-2.75,8.44h-2.13l-2.8-8.47-.26,8.47h-2.66l.34-12.15Z"/>
        <path class="cls-4" d="M80.51,4.27h3.78l3.88,12.15h-3.28l-.77-2.8h-3.38l-.79,2.8h-3.33l3.88-12.15Zm3.23,7.93l-1.32-5.1-1.32,5.1h2.63Z"/>
        <path class="cls-4" d="M90.11,4.27h2.47l4.72,6.93V4.27h2.92v12.15h-2.35l-4.74-7.26v7.26h-3.02V4.27Z"/>
        <path class="cls-4" d="M103.25,4.27h3.5v12.15h-3.5V4.27Z"/>
        <path class="cls-4" d="M109.74,4.27h7.97v1.53h-4.45v3.54h3.64v1.54h-3.64v5.53h-3.52V4.27Z"/>
        <path class="cls-4" d="M119.63,4.27h8.14v1.56h-4.62v3.49h3.64v1.54h-3.64v4.03h4.67v1.52h-8.19V4.27Z"/>
        <path class="cls-4" d="M129.39,12.88l3.04-.38c.1,1.44,.65,2.37,2.2,2.37,1.12,0,1.6-.48,1.6-1.14,0-1.05-.86-1.63-2.13-2.32l-2.44-1.33c-1.39-.75-2.25-1.59-2.25-2.94,0-1.92,1.92-3,5-3,3.64,0,4.67,1.53,4.86,3.3l-3.04,.33c-.07-1.14-.34-1.99-1.89-1.99-1.05,0-1.63,.49-1.63,1.14,0,.83,.55,1.27,1.58,1.83l2.42,1.33c1.58,.85,2.9,1.92,2.9,3.52,0,1.75-1.96,2.98-4.86,2.98-3.54,0-5.22-1.29-5.36-3.71Z"/>
        <path class="cls-4" d="M143.64,5.9h-3.09v-1.63h9.65v1.63h-3.02v10.51h-3.54V5.9Z"/>
        <path class="cls-4" d="M158.07,4.27h3.66l2.75,8.41,2.85-8.41h3.57l.36,12.15h-2.63l-.29-8.44-2.75,8.44h-2.13l-2.8-8.47-.26,8.47h-2.66l.34-12.15Z"/>
        <path class="cls-4" d="M176.75,11.78l-3.93-7.51h3.3l2.39,4.81,2.25-4.81h3.23l-3.88,7.51v4.63h-3.38v-4.63Z"/>
        <path class="cls-4" d="M58.66,21.27h3.78l3.88,12.15h-3.28l-.77-2.8h-3.38l-.79,2.8h-3.33l3.88-12.15Zm3.23,7.93l-1.32-5.1-1.32,5.1h2.63Z"/>
        <path class="cls-4" d="M68.26,21.27h7.97v1.53h-4.45v3.54h3.64v1.54h-3.64v5.53h-3.52v-12.15Z"/>
        <path class="cls-4" d="M78.15,21.27h7.97v1.53h-4.45v3.54h3.64v1.54h-3.64v5.53h-3.52v-12.15Z"/>
        <path class="cls-4" d="M88.13,21.27h3.5v12.15h-3.5v-12.15Z"/>
        <path class="cls-4" d="M94.62,21.27h4.67c3.88,0,6.08,.78,6.08,3.22,0,1.46-.57,2.48-2.39,2.94l2.71,5.98h-3.54l-2.32-5.56h-1.68v5.56h-3.52v-12.15Zm4.64,5.2c2.04,0,2.78-.55,2.78-1.86,0-1.23-.55-1.83-2.58-1.83h-1.32v3.69h1.12Z"/>
        <path class="cls-4" d="M108.34,21.27h3.66l2.75,8.41,2.85-8.41h3.57l.36,12.15h-2.63l-.29-8.44-2.75,8.44h-2.13l-2.8-8.47-.26,8.47h-2.66l.34-12.15Z"/>
        <path class="cls-4" d="M127.3,21.27h3.78l3.88,12.15h-3.28l-.77-2.8h-3.38l-.79,2.8h-3.33l3.88-12.15Zm3.23,7.93l-1.32-5.1-1.32,5.1h2.63Z"/>
        <path class="cls-4" d="M137.93,22.9h-3.09v-1.63h9.65v1.63h-3.02v10.51h-3.54v-10.51Z"/>
        <path class="cls-4" d="M146.36,21.27h3.5v12.15h-3.5v-12.15Z"/>
        <path class="cls-4" d="M152.53,29.61v-4.56c0-2.46,1.44-3.92,5.6-3.92s5.58,1.46,5.58,3.92v4.56c0,2.45-1.44,3.98-5.58,3.98s-5.6-1.52-5.6-3.98Zm7.59,.53v-5.6c0-1.02-.26-1.78-1.99-1.78s-2.01,.77-2.01,1.78v5.6c0,1,.26,1.81,2.01,1.81s1.99-.81,1.99-1.81Z"/>
        <path class="cls-4" d="M166.32,21.27h2.47l4.72,6.93v-6.93h2.92v12.15h-2.35l-4.74-7.26v7.26h-3.02v-12.15Z"/>
        <path class="cls-4" d="M178.89,29.88l3.04-.38c.1,1.44,.65,2.37,2.2,2.37,1.12,0,1.6-.48,1.6-1.14,0-1.05-.86-1.63-2.13-2.32l-2.44-1.33c-1.39-.75-2.25-1.59-2.25-2.94,0-1.92,1.92-3,5-3,3.64,0,4.67,1.53,4.86,3.3l-3.04,.33c-.07-1.14-.34-1.99-1.89-1.99-1.05,0-1.63,.49-1.63,1.14,0,.83,.55,1.27,1.58,1.83l2.42,1.33c1.58,.85,2.9,1.92,2.9,3.52,0,1.75-1.96,2.98-4.86,2.98-3.54,0-5.22-1.29-5.36-3.71Z"/>
      </g>
      <g>
        <path class="cls-4" d="M55.28,42.82v-2.57c0-1.48,.66-2.44,3.13-2.44,2.17,0,2.93,.78,2.93,2.1v.58h-1.54v-.51c0-.81-.03-1.37-1.38-1.37s-1.51,.59-1.51,1.49v2.89c0,1.1,.39,1.46,1.51,1.46,1.31,0,1.38-.58,1.38-1.45v-.54h1.54v.54c0,1.34-.65,2.25-2.93,2.25-2.47,0-3.13-1.06-3.13-2.42Z"/>
        <path class="cls-4" d="M63.83,37.87h2.34c2.33,0,3.42,.55,3.42,1.94,0,.85-.4,1.49-1.44,1.7l1.65,3.66h-1.57l-1.52-3.42h-1.26v3.42h-1.62v-7.29Zm2.24,3.14c1.36,0,1.95-.27,1.95-1.21,0-.86-.37-1.21-1.85-1.21h-.72v2.41h.62Z"/>
        <path class="cls-4" d="M72.22,37.87h4.51v.76h-2.89v2.41h2.34v.72h-2.34v2.67h2.91v.73h-4.54v-7.29Z"/>
        <path class="cls-4" d="M80.84,37.87h1.57l2.48,7.29h-1.54l-.53-1.84h-2.37l-.56,1.84h-1.52l2.47-7.29Zm1.77,4.73l-.98-3.29-.96,3.29h1.94Z"/>
        <path class="cls-4" d="M87.82,38.62h-1.97v-.76h5.5v.76h-1.91v6.54h-1.62v-6.54Z"/>
        <path class="cls-4" d="M93.41,37.87h4.51v.76h-2.89v2.41h2.34v.72h-2.34v2.67h2.91v.73h-4.54v-7.29Z"/>
        <path class="cls-4" d="M106.19,42.58l-2.51-4.72h1.51l1.78,3.52,1.75-3.52h1.52l-2.5,4.72v2.57h-1.55v-2.57Z"/>
        <path class="cls-4" d="M112.04,42.87v-2.76c0-1.44,.83-2.3,3.19-2.3s3.17,.87,3.17,2.3v2.77c0,1.43-.83,2.36-3.17,2.36s-3.19-.92-3.19-2.37Zm4.72,.23v-3.2c0-.81-.24-1.31-1.54-1.31s-1.55,.5-1.55,1.31v3.2c0,.81,.24,1.34,1.55,1.34s1.54-.53,1.54-1.34Z"/>
        <path class="cls-4" d="M120.83,42.7v-4.83h1.55v4.88c0,.95,.19,1.69,1.55,1.69s1.55-.75,1.55-1.69v-4.88h1.54v4.83c0,1.53-.56,2.54-3.09,2.54s-3.1-1.01-3.1-2.54Z"/>
        <path class="cls-4" d="M129.66,37.87h2.34c2.33,0,3.42,.55,3.42,1.94,0,.85-.4,1.49-1.44,1.7l1.65,3.66h-1.57l-1.52-3.42h-1.26v3.42h-1.62v-7.29Zm2.24,3.14c1.36,0,1.95-.27,1.95-1.21,0-.86-.37-1.21-1.85-1.21h-.72v2.41h.62Z"/>
        <path class="cls-4" d="M142.27,37.87h2.34c2.33,0,3.42,.55,3.42,1.94,0,.85-.4,1.49-1.44,1.7l1.65,3.66h-1.57l-1.52-3.42h-1.26v3.42h-1.62v-7.29Zm2.24,3.14c1.36,0,1.95-.27,1.95-1.21,0-.86-.37-1.21-1.85-1.21h-.72v2.41h.62Z"/>
        <path class="cls-4" d="M150.66,37.87h4.51v.76h-2.89v2.41h2.34v.72h-2.34v2.67h2.91v.73h-4.54v-7.29Z"/>
        <path class="cls-4" d="M159.28,37.87h1.57l2.48,7.29h-1.54l-.53-1.84h-2.37l-.56,1.84h-1.52l2.47-7.29Zm1.77,4.73l-.98-3.29-.96,3.29h1.94Z"/>
        <path class="cls-4" d="M165.44,37.87h1.62v6.56h2.97v.73h-4.59v-7.29Z"/>
        <path class="cls-4" d="M172.17,37.87h1.59v7.29h-1.59v-7.29Z"/>
        <path class="cls-4" d="M177.85,38.62h-1.97v-.76h5.5v.76h-1.91v6.54h-1.62v-6.54Z"/>
        <path class="cls-4" d="M185.22,42.58l-2.51-4.72h1.51l1.78,3.52,1.75-3.52h1.52l-2.5,4.72v2.57h-1.55v-2.57Z"/>
      </g>
      <g>
        <path class="cls-14" d="M33.58,46.15c-.89,.41-1.83,.73-2.78,1.03l-6.86,.98,9.64-2.02Z"/>
        <path class="cls-1" d="M40.51,41.54c-.72,.69-1.47,1.33-2.27,1.91l-14.31,4.72,16.58-6.62Z"/>
        <path class="cls-13" d="M45.51,34.81c-.45,.89-.94,1.75-1.5,2.58l-20.08,10.78,21.58-13.36Z"/>
        <path class="cls-15" d="M47.87,26.78c-.11,1-.28,1.98-.52,2.94l-23.42,18.45,23.94-21.39Z"/>
        <path class="cls-10" d="M47.87,21.37l-23.94,26.8,23.42-29.73c.23,.95,.41,1.94,.52,2.94Z"/>
        <path class="cls-6" d="M45.5,13.34L23.94,48.17,44,10.78c.56,.81,1.06,1.67,1.5,2.56Z"/>
        <path class="cls-11" d="M40.51,6.64L23.94,48.17,38.25,4.72c.8,.58,1.55,1.22,2.27,1.92Z"/>
        <path class="cls-16" d="M33.55,2l-9.61,46.17L30.76,.98c.95,.28,1.89,.61,2.78,1.02Z"/>
        <path class="cls-12" d="M25.42,.05l-1.48,48.12L22.45,.05c.48-.03,.98-.05,1.48-.05s1,.02,1.48,.05Z"/>
        <path class="cls-8" d="M23.94,48.17L14.31,2c.91-.39,1.84-.73,2.8-1.02l6.83,47.18Z"/>
        <path class="cls-7" d="M23.94,48.17L7.36,6.64c.72-.7,1.47-1.34,2.27-1.92l14.31,43.45Z"/>
        <path class="cls-17" d="M23.94,48.17L2.37,13.34c.44-.89,.94-1.75,1.5-2.56L23.94,48.17Z"/>
        <path class="cls-18" d="M23.94,48.17L0,21.37c.11-1,.28-1.98,.52-2.94l23.42,29.73Z"/>
        <path class="cls-5" d="M23.94,48.17L.52,29.72c-.23-.95-.41-1.94-.52-2.94l23.94,21.39Z"/>
        <path class="cls-3" d="M23.94,48.17L3.86,37.39c-.56-.83-1.05-1.69-1.5-2.58l21.58,13.36Z"/>
        <path class="cls-9" d="M23.94,48.17l-14.31-4.72c-.8-.58-1.55-1.22-2.27-1.91l16.58,6.62Z"/>
        <path class="cls-2" d="M23.94,48.17l-6.86-.98c-.95-.3-1.89-.63-2.78-1.03l9.64,2.02Z"/>
      </g>
    </g>
  </g>
</svg>